<svg width="20" height="20" viewBox="0 0 20 20" fill="none" xmlns="http://www.w3.org/2000/svg">
<path fill-rule="evenodd" clip-rule="evenodd"
		d="M12.5 1.5C11.9477 1.5 11.5 1.94772 11.5 2.5C11.5 3.05228 11.9477 3.5 12.5 3.5H15.0858L10.9596 7.62623C10.569 8.01675 10.569 8.64992 10.9596 9.04044C11.3501 9.43096 11.9832 9.43096 12.3738 9.04044L16.5 4.91421V7.5C16.5 8.05228 16.9477 8.5 17.5 8.5C18.0523 8.5 18.5 8.05228 18.5 7.5V2.5C18.5 1.94772 18.0523 1.5 17.5 1.5H12.5ZM9.04044 12.3738C9.43096 11.9832 9.43096 11.3501 9.04044 10.9596C8.64992 10.569 8.01675 10.569 7.62623 10.9596L3.5 15.0858V12.5C3.5 11.9477 3.05228 11.5 2.5 11.5C1.94772 11.5 1.5 11.9477 1.5 12.5V17.5C1.5 18.0523 1.94772 18.5 2.5 18.5H7.5C8.05228 18.5 8.5 18.0523 8.5 17.5C8.5 16.9477 8.05228 16.5 7.5 16.5H4.91421L9.04044 12.3738Z"
		fill="#354052" />
</svg>