<svg width="12" height="13" viewBox="0 0 12 13" fill="none" xmlns="http://www.w3.org/2000/svg">
<path
		d="M11.0168 11.0791C9.6341 12.3327 6.69649 10.4738 5.50768 9.71189C4.1978 8.88933 3.08725 7.79185 2.2549 6.49739C1.55642 5.43187 -0.280205 2.2784 0.869633 1.0336C1.52685 0.322111 3.32459 0.358108 4.01344 0.943548C4.53762 1.38904 4.96037 2.99213 4.80503 3.71196C4.69538 4.22 4.17834 4.57515 3.82707 4.92228C4.59883 6.26355 5.7226 7.37411 7.07985 8.13678C7.43147 7.78929 7.79104 7.27857 8.30458 7.17034C9.03492 7.01641 10.6619 7.43433 11.1114 7.95864C11.6735 8.61428 11.6118 10.5397 11.0168 11.0791Z"
		stroke="#7F8FA4" stroke-linecap="round" stroke-linejoin="round" />
</svg>